<?xml version="1.0" encoding="UTF-8" ?>
<!DOCTYPE svg PUBLIC "-//W3C//DTD SVG 1.1//EN" "http://www.w3.org/Graphics/SVG/1.1/DTD/svg11.dtd">
<svg width="256pt" height="256pt" viewBox="0 0 256 256" version="1.1" xmlns="http://www.w3.org/2000/svg">
<path fill="#ffffff" d=" M 0.00 0.00 L 256.00 0.00 L 256.00 256.00 L 0.00 256.00 L 0.00 0.00 Z" />
<path fill="#0b851a" d=" M 117.60 7.24 C 122.88 7.18 128.16 7.11 133.43 7.32 L 133.22 8.58 C 136.80 8.48 140.38 8.42 143.95 8.67 C 145.93 9.32 147.98 9.69 150.00 10.17 C 151.64 10.40 153.30 10.66 154.83 11.35 C 155.83 11.41 156.82 11.47 157.81 11.53 C 159.17 12.03 160.54 12.48 161.91 12.93 C 164.41 14.15 167.10 14.92 169.78 15.65 L 169.20 16.81 C 169.88 16.67 171.24 16.40 171.93 16.27 C 172.90 16.84 173.90 17.37 174.92 17.87 C 176.00 18.54 177.16 19.09 178.22 19.82 C 179.04 19.97 180.67 20.29 181.49 20.44 C 181.50 20.59 181.51 20.88 181.52 21.02 C 186.48 22.09 189.61 26.60 194.34 28.05 C 194.38 28.25 194.46 28.63 194.50 28.83 C 195.75 29.50 197.00 30.18 198.25 30.86 C 199.30 31.56 200.31 32.34 201.13 33.31 C 202.15 33.87 203.17 34.42 204.21 34.93 C 204.82 35.87 205.33 36.86 205.74 37.90 C 207.28 37.05 208.33 38.15 209.03 39.41 C 209.39 39.49 210.11 39.64 210.47 39.71 C 210.43 40.08 210.34 40.82 210.30 41.20 C 211.36 42.10 212.42 43.00 213.50 43.88 L 213.48 44.70 L 214.88 44.23 L 214.17 45.31 L 215.46 45.47 L 215.70 46.68 L 216.10 46.51 C 217.01 47.58 217.91 48.65 218.83 49.72 C 219.15 49.67 219.80 49.55 220.12 49.50 C 220.63 50.88 221.18 52.25 221.69 53.64 L 222.82 53.32 L 222.29 54.73 C 222.79 54.66 223.78 54.53 224.27 54.47 C 224.38 54.96 224.60 55.93 224.71 56.42 C 226.22 57.97 227.25 59.87 228.06 61.86 C 228.69 62.93 229.32 64.00 229.96 65.07 C 231.92 66.81 233.05 69.16 233.68 71.67 C 233.81 71.73 234.08 71.87 234.21 71.93 C 234.72 72.99 235.24 74.05 235.78 75.10 C 235.74 75.32 235.67 75.75 235.63 75.96 C 237.77 77.71 238.09 80.57 238.99 83.01 C 239.60 84.57 239.60 86.23 238.82 87.76 C 239.47 87.64 240.77 87.38 241.42 87.26 C 241.12 88.37 240.53 90.60 240.23 91.72 L 241.19 91.25 C 241.46 91.63 241.99 92.40 242.26 92.78 C 241.40 98.19 243.81 103.51 243.66 108.95 C 244.17 115.64 241.85 122.08 241.62 128.73 L 240.22 128.36 C 240.53 129.42 241.14 131.55 241.44 132.62 C 240.94 132.55 239.94 132.42 239.44 132.36 C 239.47 134.24 239.67 136.19 238.84 137.95 C 237.99 140.15 237.49 142.68 235.36 144.05 C 235.62 144.60 235.88 145.15 236.14 145.69 C 235.20 147.04 234.31 148.42 233.43 149.80 C 233.43 150.44 233.42 151.73 233.41 152.37 C 232.80 152.45 231.58 152.63 230.97 152.71 C 229.92 157.38 226.01 160.88 222.73 164.18 C 222.65 164.69 222.49 165.71 222.41 166.23 C 221.00 167.33 219.55 168.41 217.91 169.16 C 215.67 171.58 213.06 173.58 210.08 175.01 C 208.87 175.65 207.65 176.27 206.41 176.85 L 206.32 177.81 C 205.85 177.64 204.92 177.31 204.46 177.15 C 204.41 177.44 204.31 178.01 204.26 178.30 C 200.21 179.85 196.08 181.19 191.96 182.57 C 188.62 183.78 184.97 183.77 181.67 185.13 C 180.11 185.15 178.56 185.12 177.00 185.11 C 174.70 185.73 172.32 185.78 169.98 185.36 C 170.36 183.15 171.91 182.40 174.00 182.64 C 175.01 181.92 176.00 181.18 176.98 180.42 L 177.75 180.57 L 177.65 178.94 C 178.15 179.16 179.14 179.61 179.64 179.84 L 179.65 178.27 C 180.46 178.34 182.07 178.48 182.88 178.55 L 182.12 177.21 L 183.76 177.51 C 183.64 177.00 183.39 175.99 183.26 175.48 L 184.83 175.82 L 183.77 174.13 L 185.74 174.90 L 185.27 173.82 C 186.21 173.34 187.16 172.86 188.10 172.37 C 189.24 170.60 190.74 169.11 192.52 167.98 L 192.25 167.11 L 193.10 167.67 C 193.82 166.61 194.56 165.57 195.32 164.55 C 195.31 164.27 195.31 163.73 195.30 163.45 C 196.00 163.42 197.39 163.35 198.09 163.32 C 198.31 161.89 198.53 160.47 198.80 159.06 C 199.67 158.16 200.54 157.25 201.42 156.35 C 202.11 154.02 202.97 151.75 203.79 149.47 C 204.24 149.44 205.14 149.38 205.58 149.35 C 205.49 148.29 205.41 147.24 205.33 146.18 C 206.30 144.37 207.21 142.53 207.99 140.63 L 208.11 140.52 C 208.49 139.24 208.91 137.98 209.37 136.73 C 209.13 136.22 208.66 135.19 208.42 134.68 C 208.96 134.56 210.03 134.30 210.57 134.18 C 210.43 133.07 210.30 131.97 210.17 130.87 C 213.32 128.74 210.14 124.54 212.35 121.72 C 212.33 114.49 213.21 107.11 211.40 100.02 C 211.41 98.41 211.67 96.81 211.83 95.21 C 211.44 95.26 210.64 95.38 210.25 95.44 C 210.27 94.83 210.30 93.62 210.32 93.01 C 208.72 90.98 209.34 88.40 209.41 86.04 L 208.42 86.77 L 208.57 85.50 L 207.41 85.43 C 207.43 84.74 207.48 83.35 207.51 82.66 C 206.72 81.44 205.96 80.20 205.20 78.97 C 205.25 78.36 205.36 77.13 205.42 76.52 C 203.78 74.07 201.16 71.46 201.80 68.26 L 200.50 68.81 C 200.46 68.19 200.39 66.95 200.35 66.33 C 199.05 65.13 198.00 63.72 197.22 62.14 C 196.45 61.14 195.73 60.11 195.00 59.08 C 194.07 57.52 193.11 55.98 192.21 54.40 L 191.42 54.68 L 191.63 53.84 C 189.61 51.82 187.59 49.81 185.37 48.01 C 185.39 47.51 185.44 46.50 185.46 46.00 C 183.92 44.83 182.46 43.47 180.53 43.01 C 178.23 39.09 173.36 38.14 171.03 34.32 L 170.15 34.82 L 170.33 33.15 C 169.83 33.34 168.83 33.71 168.34 33.90 L 168.77 32.41 L 167.26 32.71 L 167.83 31.97 C 166.23 31.66 164.81 30.94 163.63 29.83 C 163.28 29.65 162.58 29.29 162.23 29.11 C 160.84 28.05 159.28 27.26 157.59 26.80 C 157.58 26.43 157.56 25.68 157.55 25.30 C 157.04 25.46 156.02 25.76 155.52 25.91 C 155.47 25.58 155.39 24.90 155.34 24.56 C 153.43 24.00 151.51 23.48 149.54 23.22 C 149.54 23.04 149.55 22.68 149.56 22.51 C 146.07 21.53 142.94 19.24 139.20 19.37 L 139.32 18.38 C 138.07 18.45 136.82 18.52 135.57 18.59 C 135.50 18.05 135.37 16.97 135.30 16.43 C 133.55 16.65 131.80 16.87 130.06 17.16 C 128.87 16.76 127.68 16.40 126.47 16.06 L 126.56 15.57 C 122.79 15.39 119.03 15.35 115.27 15.48 L 115.69 14.48 C 110.20 14.92 104.51 13.71 99.17 15.31 C 96.37 15.39 93.52 15.28 90.78 15.99 C 88.47 16.45 86.15 16.83 83.82 17.21 C 84.89 14.59 87.74 14.22 90.04 13.30 C 92.29 12.09 94.73 11.28 97.30 11.24 C 98.79 10.71 100.35 10.41 101.91 10.12 C 107.07 8.74 112.38 8.13 117.71 8.58 C 117.69 8.25 117.63 7.58 117.60 7.24 Z" />
<path fill="#0b851a" d=" M 97.99 21.84 C 101.95 20.90 106.05 21.45 110.08 21.23 C 110.45 21.51 111.20 22.07 111.57 22.35 C 116.81 21.89 121.96 22.87 127.01 24.18 C 129.18 24.54 131.31 25.03 133.45 25.53 C 133.41 25.71 133.33 26.05 133.28 26.23 C 134.76 26.45 136.25 26.71 137.70 27.11 C 138.74 27.52 139.78 27.93 140.83 28.34 C 142.26 28.82 143.69 29.33 145.13 29.79 C 145.71 30.02 146.86 30.46 147.44 30.69 L 147.37 31.32 C 149.18 31.80 150.99 32.33 152.83 32.72 L 152.35 33.72 C 152.93 33.71 154.10 33.69 154.68 33.68 C 154.59 33.99 154.41 34.62 154.32 34.94 C 155.88 35.24 157.30 35.89 158.17 37.29 C 159.11 37.47 160.99 37.83 161.93 38.01 L 159.55 39.62 C 160.45 39.47 161.31 39.20 162.17 38.93 C 164.63 40.28 166.92 41.92 168.84 43.98 C 168.63 44.33 168.21 45.03 168.00 45.38 C 168.88 45.37 170.63 45.33 171.50 45.32 L 171.34 46.77 L 172.84 46.46 C 172.67 46.96 172.32 47.96 172.14 48.46 L 173.67 48.22 L 173.53 49.73 C 174.01 49.60 174.98 49.34 175.47 49.20 L 175.28 50.71 L 176.08 50.34 C 176.39 50.72 177.01 51.49 177.33 51.87 C 177.78 52.66 178.22 53.46 178.66 54.26 C 180.81 55.71 182.25 57.85 183.55 60.05 C 183.57 60.45 183.61 61.26 183.63 61.66 C 185.23 62.54 185.80 64.11 185.99 65.83 C 186.32 65.67 186.96 65.34 187.29 65.18 L 187.41 66.71 L 188.93 66.65 C 188.73 67.13 188.34 68.11 188.14 68.60 L 189.22 68.49 C 189.97 69.99 190.76 71.48 191.46 73.01 C 192.31 74.47 193.20 75.91 194.22 77.26 C 194.41 78.53 194.58 79.81 194.73 81.09 C 195.44 82.20 196.12 83.34 196.78 84.48 L 197.58 84.55 C 197.49 85.36 197.32 86.96 197.23 87.77 L 198.33 87.40 C 198.38 90.73 199.11 94.01 200.14 97.17 C 200.30 100.72 200.30 104.28 200.14 107.84 C 199.75 109.11 199.42 110.40 199.15 111.70 L 198.85 111.67 C 198.55 113.09 198.27 114.51 197.84 115.90 C 197.16 117.14 196.50 118.40 195.86 119.67 C 195.59 119.58 195.04 119.40 194.77 119.31 C 194.50 121.12 194.79 123.50 192.42 123.92 L 192.57 124.61 C 192.22 124.62 191.51 124.63 191.16 124.64 C 188.90 127.80 185.58 130.57 181.49 130.51 C 181.48 130.71 181.47 131.11 181.46 131.31 C 180.33 131.50 179.21 131.71 178.09 131.93 C 177.05 132.30 176.00 132.68 174.96 133.06 C 170.76 134.91 165.98 133.47 161.86 135.35 C 159.83 135.36 157.81 135.26 155.78 135.17 C 155.46 135.51 154.81 136.18 154.49 136.52 C 152.00 136.51 149.43 136.22 147.04 137.04 C 145.76 137.37 144.47 137.66 143.20 137.97 C 141.86 138.32 140.51 138.63 139.16 138.89 L 139.85 139.63 L 138.49 139.54 C 138.46 140.01 138.41 140.95 138.38 141.43 C 137.28 141.48 136.17 141.54 135.07 141.61 C 134.33 143.30 133.56 144.97 132.73 146.62 C 131.52 150.82 131.48 155.17 131.55 159.51 C 131.87 159.88 132.50 160.62 132.82 160.99 C 132.67 162.27 132.53 163.56 132.40 164.85 C 133.92 165.50 134.36 166.60 133.73 168.15 C 134.23 169.40 134.70 170.67 135.20 171.93 C 135.75 173.08 136.30 174.23 136.84 175.39 C 137.05 175.37 137.46 175.31 137.67 175.28 C 137.64 175.92 137.59 177.21 137.56 177.85 C 138.65 178.53 139.74 179.22 140.82 179.92 C 140.69 180.30 140.42 181.05 140.29 181.42 C 141.08 181.49 142.67 181.64 143.46 181.71 C 143.54 183.01 143.61 184.32 143.66 185.64 L 144.93 184.93 L 144.33 186.05 C 145.58 186.32 146.83 186.60 148.08 186.92 C 149.44 187.93 150.78 188.96 152.08 190.06 C 154.78 191.22 157.32 192.98 160.41 192.88 C 160.38 193.22 160.34 193.89 160.32 194.22 C 163.42 194.83 166.49 195.71 169.69 195.61 L 169.70 196.37 L 169.72 197.69 C 172.63 197.46 175.54 197.23 178.46 197.02 C 178.62 197.60 178.95 198.77 179.11 199.35 C 182.30 199.31 185.48 199.31 188.67 199.35 C 188.85 198.78 189.23 197.64 189.41 197.07 C 191.58 197.23 193.74 197.40 195.92 197.45 C 196.21 197.17 196.79 196.62 197.08 196.35 L 197.75 195.69 C 199.56 195.65 201.18 195.00 202.48 193.73 C 203.16 194.30 203.84 194.89 204.52 195.48 C 204.55 194.87 204.62 193.66 204.66 193.05 C 206.19 192.71 207.73 192.37 209.20 191.79 C 209.48 191.75 210.04 191.67 210.32 191.63 L 210.46 190.19 C 210.84 190.31 211.59 190.57 211.97 190.70 C 213.44 189.85 214.93 188.97 216.03 187.63 L 216.06 187.46 C 216.78 186.35 217.76 185.51 218.96 184.97 C 220.70 183.76 222.35 182.43 223.99 181.08 C 225.46 179.35 226.89 177.57 228.08 175.63 L 228.64 175.58 C 228.64 175.20 228.65 174.45 228.65 174.08 C 229.28 174.19 230.55 174.41 231.19 174.52 C 231.59 173.27 232.00 172.03 232.44 170.80 C 232.48 170.64 232.58 170.32 232.62 170.16 C 234.18 168.08 235.55 165.87 237.10 163.78 C 237.26 163.19 237.57 162.01 237.72 161.42 L 239.00 161.53 C 238.85 161.05 238.56 160.10 238.41 159.62 L 239.16 159.42 C 240.14 157.23 241.23 155.10 242.47 153.05 C 242.49 152.41 242.54 151.12 242.56 150.47 C 243.11 150.43 244.21 150.34 244.76 150.29 C 244.35 149.59 243.94 148.89 243.54 148.18 C 244.41 146.29 244.96 144.28 245.83 142.39 C 246.44 141.18 247.09 139.98 247.73 138.79 C 248.19 139.13 249.11 139.80 249.57 140.14 L 250.06 140.49 C 247.69 143.95 247.98 148.49 247.49 152.51 L 246.63 152.42 C 246.62 153.23 246.61 154.87 246.60 155.68 C 246.11 157.21 245.82 158.79 245.65 160.39 C 245.33 160.43 244.69 160.52 244.36 160.57 C 244.40 161.24 244.49 162.57 244.53 163.24 C 243.02 167.15 242.25 171.44 239.79 174.92 C 238.91 177.12 238.07 179.34 237.32 181.60 L 236.71 181.34 C 236.23 182.47 235.76 183.60 235.28 184.73 L 234.09 184.40 C 234.24 184.74 234.54 185.43 234.69 185.78 C 233.76 187.16 232.87 188.59 231.99 190.01 C 231.18 190.46 230.40 190.93 229.64 191.45 C 229.81 193.81 227.77 195.27 226.48 196.94 L 226.62 197.85 L 225.74 197.24 C 225.53 197.67 225.11 198.52 224.90 198.95 C 223.75 200.67 222.35 202.25 220.32 202.89 L 220.94 203.74 L 220.01 203.48 C 219.21 204.34 218.39 205.20 217.58 206.06 L 217.64 206.10 C 217.24 206.46 216.46 207.19 216.06 207.56 L 215.88 207.40 C 215.27 208.25 214.66 209.10 214.05 209.96 C 212.68 210.64 211.32 211.35 209.95 212.04 C 208.97 212.83 207.94 213.55 206.97 214.34 C 202.08 217.10 197.37 220.30 192.00 222.07 C 191.01 222.54 190.03 223.03 189.07 223.55 C 187.83 223.50 186.60 223.45 185.37 223.40 L 185.53 224.60 C 184.87 224.65 183.53 224.74 182.87 224.79 C 181.22 225.31 179.54 225.70 177.88 226.13 C 176.20 226.38 174.53 226.71 172.95 227.35 C 170.69 227.46 168.43 227.49 166.17 227.61 C 159.37 230.31 152.11 227.05 145.12 227.33 C 143.25 226.45 141.17 226.35 139.15 226.14 C 137.49 225.68 135.80 225.33 134.12 224.96 C 133.07 224.61 132.04 224.24 131.01 223.85 C 129.30 223.36 127.61 222.80 125.91 222.26 C 123.47 221.30 121.05 220.30 118.63 219.29 L 118.58 218.24 C 118.11 218.39 117.16 218.67 116.68 218.81 L 116.58 217.82 C 115.06 217.06 113.58 216.24 112.11 215.40 L 112.81 215.01 C 111.42 214.65 110.10 214.12 108.85 213.43 C 108.66 213.50 108.28 213.62 108.09 213.69 C 107.65 213.23 106.76 212.31 106.31 211.85 C 106.40 211.66 106.58 211.28 106.68 211.09 C 105.06 210.77 103.56 210.14 102.65 208.69 C 102.22 208.65 101.37 208.56 100.95 208.52 C 99.06 206.36 97.13 204.15 94.51 202.88 C 94.45 202.71 94.34 202.38 94.28 202.21 C 92.55 201.15 91.07 199.78 89.69 198.31 C 89.37 198.02 88.72 197.44 88.40 197.15 L 88.34 197.03 C 86.56 194.57 84.78 192.09 82.57 189.99 C 82.48 189.57 82.32 188.73 82.24 188.30 C 80.74 187.39 80.20 185.84 79.90 184.20 C 79.71 184.35 79.32 184.63 79.13 184.78 C 78.71 184.28 77.87 183.28 77.45 182.78 C 77.51 182.44 77.63 181.78 77.69 181.45 L 76.83 181.37 C 73.54 176.85 71.60 171.55 68.43 166.99 C 68.48 166.46 68.58 165.40 68.63 164.87 C 67.99 163.95 67.35 163.03 66.73 162.11 C 66.29 159.96 66.33 157.78 66.50 155.61 C 65.93 155.59 64.79 155.55 64.21 155.53 C 64.58 154.83 65.33 153.42 65.70 152.72 C 65.16 152.39 64.08 151.72 63.54 151.38 C 63.54 149.99 63.55 148.60 63.53 147.21 C 61.85 145.52 62.50 143.06 62.36 140.95 C 62.61 135.70 61.58 130.23 63.79 125.27 L 64.52 125.60 L 64.47 124.87 L 65.40 124.33 C 64.61 122.55 64.95 120.86 66.01 119.30 C 66.77 117.35 67.63 115.38 69.23 113.96 L 69.35 113.37 L 70.65 113.68 L 70.28 112.31 L 71.40 112.78 C 71.48 111.96 71.64 110.33 71.72 109.51 C 72.48 109.53 73.99 109.56 74.74 109.58 L 74.25 108.39 L 74.99 108.40 C 76.25 106.70 78.09 105.72 80.00 104.93 C 80.94 104.44 81.88 103.93 82.80 103.41 C 89.18 102.77 95.58 102.34 102.00 102.77 C 105.09 103.82 108.41 103.16 111.60 103.24 C 111.50 103.60 111.31 104.33 111.21 104.69 C 115.39 103.92 120.47 106.13 123.96 103.16 C 124.88 103.35 126.71 103.74 127.62 103.93 C 127.58 103.68 127.48 103.18 127.44 102.94 C 129.44 101.35 131.30 99.59 133.19 97.87 C 135.24 92.52 134.67 86.72 134.59 81.12 C 134.49 77.33 132.67 73.96 130.49 70.97 C 130.55 70.61 130.68 69.90 130.74 69.55 L 129.66 69.80 C 129.11 68.40 128.57 67.01 128.07 65.61 C 127.43 65.53 126.14 65.38 125.50 65.31 C 125.54 64.84 125.63 63.91 125.68 63.44 C 125.14 63.44 124.05 63.42 123.51 63.41 C 123.55 62.88 123.64 61.80 123.68 61.27 L 122.12 61.55 L 122.95 59.32 C 122.39 59.79 121.25 60.72 120.68 61.19 L 120.41 59.26 C 120.01 59.34 119.21 59.50 118.81 59.57 C 117.95 58.71 117.10 57.84 116.23 56.98 C 113.01 55.78 109.82 54.31 106.32 54.23 L 106.69 53.36 C 104.34 53.25 101.44 54.13 99.88 51.77 C 94.86 52.02 89.94 49.87 84.93 51.10 C 82.47 51.74 79.93 51.80 77.40 51.72 C 77.03 52.08 76.28 52.79 75.91 53.14 C 71.86 53.41 67.78 53.93 63.97 55.45 C 63.52 55.51 62.61 55.62 62.16 55.67 C 59.99 57.07 57.64 58.17 55.18 58.94 C 55.65 59.06 56.58 59.29 57.04 59.41 C 56.12 59.42 54.27 59.43 53.34 59.44 L 53.44 61.06 C 52.90 60.79 51.81 60.26 51.27 60.00 L 51.74 61.30 C 50.54 61.76 49.34 62.22 48.14 62.67 L 48.66 63.69 C 48.30 63.67 47.56 63.62 47.20 63.60 C 46.41 64.77 45.33 65.60 43.99 66.05 C 42.21 67.42 40.37 68.73 38.41 69.83 L 38.41 70.08 C 33.90 73.90 30.20 78.58 25.61 82.32 C 25.66 82.81 25.76 83.78 25.81 84.26 C 25.09 84.04 23.66 83.59 22.95 83.37 C 23.40 83.70 24.29 84.37 24.74 84.70 C 23.87 86.27 22.87 87.75 21.88 89.25 L 21.69 89.91 L 20.77 88.97 C 20.98 91.25 20.18 92.82 17.79 92.70 C 17.70 94.18 17.56 95.67 17.39 97.15 C 16.46 98.20 15.55 99.28 14.57 100.28 C 13.87 102.32 13.34 104.41 13.13 106.56 L 12.46 106.47 C 12.16 107.85 11.82 109.23 11.51 110.62 L 10.71 110.21 C 10.09 114.07 9.43 117.97 7.87 121.59 C 6.25 116.02 7.85 110.13 7.41 104.42 L 8.79 104.57 C 8.76 102.87 8.74 101.18 8.70 99.48 C 9.17 99.44 10.11 99.36 10.58 99.31 C 10.41 98.32 10.07 96.34 9.90 95.35 C 10.33 95.41 11.19 95.54 11.62 95.61 C 11.56 94.21 11.50 92.81 11.45 91.41 C 12.12 89.55 12.57 87.62 12.97 85.69 C 13.28 85.62 13.92 85.48 14.24 85.41 C 13.35 83.54 14.72 81.84 15.44 80.20 C 15.67 80.31 16.13 80.53 16.36 80.64 C 16.37 78.49 17.07 76.47 17.72 74.45 C 18.31 74.36 19.48 74.17 20.07 74.08 C 19.62 73.88 18.73 73.48 18.29 73.28 C 19.18 71.79 20.07 70.31 20.98 68.84 C 21.59 67.41 22.26 65.99 23.18 64.73 C 24.39 62.74 25.51 60.67 27.09 58.95 C 28.31 57.28 29.54 55.63 30.84 54.03 C 32.43 51.04 35.17 48.95 37.47 46.53 C 39.56 44.52 41.38 42.11 44.07 40.84 C 46.01 39.26 47.98 37.73 49.97 36.22 C 50.39 36.37 51.22 36.67 51.63 36.82 C 51.56 36.36 51.40 35.43 51.32 34.97 C 51.99 34.71 53.31 34.18 53.98 33.91 C 54.48 33.53 55.49 32.75 55.99 32.37 C 56.39 32.50 57.19 32.76 57.60 32.89 C 57.64 32.63 57.73 32.12 57.77 31.86 C 59.90 30.95 62.00 29.95 64.05 28.87 C 65.07 28.47 66.08 28.07 67.10 27.66 C 67.56 27.61 68.47 27.51 68.93 27.46 C 70.06 26.93 71.21 26.43 72.37 25.96 C 74.79 25.04 77.31 24.39 79.88 24.06 C 81.51 23.68 83.15 23.37 84.78 23.01 C 89.06 21.58 93.66 22.96 97.99 21.84 Z" />
<path fill="#0b851a" d=" M 59.16 69.73 C 59.47 69.47 60.10 68.95 60.41 68.68 C 67.56 68.73 75.39 66.76 82.05 69.95 C 80.48 70.95 78.83 71.83 77.11 72.53 C 74.84 73.49 72.38 74.28 70.80 76.29 C 69.24 76.56 67.60 76.85 67.06 78.61 L 66.23 78.52 C 66.35 79.00 66.59 79.98 66.72 80.46 L 65.20 80.21 L 65.46 81.74 C 64.97 81.60 64.00 81.32 63.52 81.18 L 63.72 82.62 L 62.36 82.37 L 62.80 83.91 L 61.86 83.11 C 61.74 84.86 61.29 86.49 59.47 87.14 C 59.40 87.56 59.28 88.39 59.22 88.81 C 57.35 91.01 56.06 93.63 55.16 96.36 C 54.98 96.31 54.62 96.21 54.44 96.15 C 53.92 97.91 53.46 99.69 53.18 101.50 C 52.78 101.76 51.97 102.28 51.57 102.53 C 51.48 104.46 52.05 106.74 50.26 108.12 C 50.52 108.50 51.04 109.25 51.30 109.63 L 49.37 109.48 C 49.37 111.56 49.38 113.63 49.32 115.71 C 48.18 118.04 48.46 120.72 47.58 123.13 C 47.68 132.09 46.48 141.50 49.43 150.09 C 49.79 152.09 48.13 155.13 50.74 156.15 C 50.54 157.97 50.34 159.80 50.20 161.63 L 52.26 161.05 C 52.09 161.72 51.75 163.05 51.58 163.72 C 52.60 166.22 53.42 168.81 54.50 171.29 C 54.24 171.71 53.71 172.55 53.45 172.97 C 54.97 173.97 56.21 175.29 57.12 176.86 C 57.21 179.35 57.91 181.75 59.95 183.35 C 59.37 183.56 58.21 183.98 57.63 184.19 L 60.75 184.54 C 60.63 185.02 60.40 185.99 60.29 186.47 L 61.73 186.58 C 61.67 186.92 61.55 187.60 61.48 187.94 C 61.99 189.09 62.47 190.24 62.94 191.41 C 63.30 191.37 64.03 191.29 64.39 191.25 C 64.43 192.09 64.51 193.75 64.55 194.59 C 64.96 194.55 65.78 194.47 66.18 194.42 C 66.73 195.64 67.28 196.87 67.85 198.08 C 69.71 199.71 71.43 201.49 73.22 203.20 C 73.24 203.82 73.29 205.07 73.32 205.70 L 74.19 205.25 C 74.83 206.16 75.47 207.07 76.11 207.98 C 76.49 208.18 77.24 208.58 77.62 208.78 L 77.29 209.26 C 78.34 210.16 79.39 211.07 80.45 211.96 C 80.58 212.58 80.84 213.83 80.97 214.46 C 81.23 213.75 81.75 212.33 82.00 211.62 C 82.84 212.88 83.56 214.19 84.18 215.57 L 84.54 215.36 L 84.60 216.57 C 85.03 216.45 85.89 216.19 86.32 216.06 C 86.44 216.35 86.68 216.94 86.80 217.23 C 88.80 217.55 90.09 219.00 91.22 220.55 C 91.58 220.47 92.30 220.31 92.66 220.24 L 92.19 221.84 C 92.74 221.67 93.85 221.34 94.41 221.17 L 94.87 224.70 L 95.76 221.93 C 96.48 222.63 97.20 223.34 97.93 224.05 C 99.59 224.47 101.35 224.92 102.37 226.45 C 103.03 226.40 103.69 226.35 104.36 226.30 C 104.49 227.09 104.74 228.67 104.87 229.46 C 105.08 228.84 105.51 227.59 105.73 226.96 C 106.79 227.87 107.87 228.77 108.95 229.67 C 109.34 229.55 110.10 229.31 110.48 229.19 L 110.31 230.52 C 111.76 230.40 113.21 230.29 114.67 230.19 C 114.67 230.83 114.66 232.12 114.66 232.76 C 115.54 232.29 117.30 231.37 118.17 230.91 C 118.36 231.89 118.74 233.85 118.93 234.83 C 119.10 234.18 119.44 232.88 119.60 232.23 C 121.33 232.98 123.08 233.68 124.89 234.22 C 129.51 234.90 134.62 234.32 138.88 236.42 C 150.09 236.29 161.30 236.34 172.50 236.30 L 172.44 238.41 C 171.74 238.48 170.33 238.62 169.62 238.69 C 164.82 240.21 160.01 241.90 154.99 242.48 C 153.48 243.54 151.63 243.46 149.88 243.55 C 148.72 244.30 147.46 244.87 146.05 244.67 C 135.07 244.81 124.08 244.88 113.10 244.66 C 110.68 244.55 107.94 245.29 105.98 243.46 C 104.80 243.44 103.63 243.41 102.46 243.38 C 99.20 241.49 95.23 241.46 91.77 240.00 C 89.39 239.67 87.19 238.69 85.11 237.52 C 82.73 236.78 80.36 236.01 78.04 235.11 C 77.56 234.70 76.60 233.86 76.12 233.45 C 74.45 233.18 72.88 232.58 71.29 232.04 C 71.41 231.79 71.65 231.29 71.78 231.03 C 70.20 230.76 68.84 229.97 67.75 228.81 C 65.99 228.24 64.25 227.61 62.51 227.03 C 62.52 226.81 62.56 226.38 62.58 226.17 C 61.31 225.36 60.07 224.52 58.85 223.65 C 58.49 223.61 57.77 223.53 57.41 223.49 C 56.29 222.24 55.16 221.01 54.05 219.76 C 53.39 219.59 52.05 219.24 51.39 219.07 C 51.35 217.96 51.31 216.84 51.28 215.73 L 50.68 217.86 C 48.65 215.61 46.49 213.44 43.86 211.89 C 43.32 211.00 42.77 210.11 42.22 209.24 L 41.86 209.62 C 40.67 207.71 39.19 206.00 37.47 204.54 C 34.51 202.08 32.93 198.50 30.72 195.45 C 29.55 193.44 28.33 191.46 27.24 189.41 C 27.12 189.33 26.87 189.18 26.74 189.11 C 25.64 186.69 24.46 184.31 23.28 181.94 C 22.85 180.93 22.45 179.91 22.08 178.88 C 21.56 177.52 21.00 176.19 20.40 174.87 C 19.90 173.71 19.40 172.56 18.88 171.41 C 18.74 169.46 18.58 167.48 17.66 165.71 C 17.65 164.01 17.68 162.30 17.70 160.59 C 17.34 160.63 16.62 160.71 16.26 160.75 C 16.41 159.03 16.55 157.30 16.69 155.58 C 16.24 155.57 15.33 155.54 14.88 155.53 C 15.18 152.84 15.30 150.14 15.31 147.43 C 14.16 146.57 13.62 145.45 13.68 144.08 C 13.61 139.18 13.74 134.27 13.63 129.37 C 14.08 129.34 14.97 129.29 15.41 129.26 C 15.27 125.97 15.16 122.69 15.23 119.40 C 15.63 119.51 16.41 119.73 16.80 119.85 C 15.45 115.14 19.27 111.01 18.92 106.27 C 19.25 106.38 19.92 106.59 20.25 106.70 C 20.20 105.11 20.27 103.51 20.98 102.06 C 21.75 100.61 22.46 99.14 23.25 97.71 C 24.49 95.05 26.05 92.57 27.87 90.28 C 28.94 88.67 29.91 87.00 30.85 85.32 L 31.81 85.65 L 31.38 84.24 L 32.27 84.86 C 32.65 84.45 33.40 83.62 33.78 83.21 L 33.26 82.39 L 34.64 82.69 L 34.61 81.25 C 35.09 81.33 36.06 81.47 36.55 81.55 C 36.53 81.22 36.49 80.55 36.47 80.22 C 38.09 79.24 39.63 78.14 41.22 77.09 C 43.37 75.44 45.75 74.10 48.30 73.15 L 48.36 72.63 C 51.06 71.88 53.72 70.97 56.22 69.69 C 56.95 69.70 58.42 69.72 59.16 69.73 Z" />
<path fill="#32983f" d=" M 246.74 136.23 C 247.78 135.29 248.83 134.37 249.92 133.49 C 249.84 135.71 249.61 137.92 249.57 140.14 C 249.11 139.80 248.19 139.13 247.73 138.79 C 247.09 139.98 246.44 141.18 245.83 142.39 C 246.18 140.34 246.52 138.29 246.74 136.23 Z" />
<path fill="#53aa5e" d=" M 169.70 196.37 C 173.42 196.51 177.62 195.26 180.93 197.51 C 182.95 197.56 184.98 197.56 187.00 197.52 C 189.93 195.34 193.73 196.46 197.08 196.35 C 196.79 196.62 196.21 197.17 195.92 197.45 C 193.74 197.40 191.58 197.23 189.41 197.07 C 189.23 197.64 188.85 198.78 188.67 199.35 C 185.48 199.31 182.30 199.31 179.11 199.35 C 178.95 198.77 178.62 197.60 178.46 197.02 C 175.54 197.23 172.63 197.46 169.72 197.69 L 169.70 196.37 Z" />
</svg>
